<svg version="1.0" xmlns="http://www.w3.org/2000/svg" width="500.000000pt" height="500.000000pt" viewBox="0 0 500.000000 500.000000" preserveAspectRatio="xMidYMid meet">

<g transform="translate(0.000000,500.000000) scale(0.100000,-0.100000)" fill="#2a41e8" stroke="none">
<path d="M1076 2709 c-54 -82 -102 -149 -105 -149 -4 0 -17 7 -29 16 -13 9 -25 14 -26 13 -2 -2 -69 -103 -149 -224 l-146 -220 280 -3 c154 -1 404 -1 555 0 l274 3 -188 282 -187 282 -41 1 c-40 0 -43 2 -90 74 l-49 74 -99 -149z m130 -11 c33 -53 40 -58 84 -58 34 0 38 -5 135 -151 55 -83 102 -156 104 -161 2 -6 -54 34 -123 87 l-127 97 -40 -28 c-22 -16 -46 -33 -53 -38 -10 -7 -36 4 -85 34 l-72 43 17 26 c63 96 128 191 130 191 2 0 16 -19 30 -42z m-159 -261 l103 -62 40 -83 c22 -46 40 -85 40 -88 0 -2 -110 -4 -245 -4 -135 0 -245 2 -245 5 0 9 193 295 199 295 3 0 52 -28 108 -63z m374 -113 c77 -59 142 -111 145 -115 3 -5 -55 -9 -129 -9 l-134 0 -43 92 -43 92 27 23 c15 13 29 23 32 23 3 0 68 -48 145 -106z" fill="#2a41e8"/>
<path d="M2620 2495 l0 -255 45 0 45 0 0 58 c0 52 11 82 31 82 3 0 30 -31 60 -70 l54 -69 58 -1 59 0 -31 38 c-16 20 -52 64 -79 97 l-50 59 38 46 c21 25 54 61 74 79 20 19 36 39 36 43 0 4 -22 8 -49 8 l-49 0 -74 -85 -73 -85 -3 155 -3 155 -44 0 -45 0 0 -255z" fill="#2a41e8"/>
<path d="M4240 2511 c0 -275 -1 -271 81 -271 47 0 49 1 49 29 0 20 -6 30 -20 34 -19 5 -20 15 -22 224 l-3 218 -42 3 -43 3 0 -240z" fill="#2a41e8"/>
<path d="M2438 2714 c-15 -33 -1 -58 36 -62 33 -4 56 13 56 42 0 51 -71 66 -92 20z" fill="#2a41e8"/>
<path d="M1930 2475 l0 -235 45 0 44 0 3 98 3 97 113 3 112 3 0 -101 0 -100 45 0 45 0 0 235 0 235 -45 0 -45 0 0 -100 0 -101 -112 3 -113 3 -3 98 -3 97 -44 0 -45 0 0 -235z" fill="#2a41e8"/>
<path d="M3440 2476 l0 -236 45 0 45 0 0 89 0 88 83 5 c105 6 142 24 169 84 26 60 17 114 -27 163 l-33 36 -141 3 -141 4 0 -236z m240 144 c27 -27 26 -81 -1 -106 -14 -12 -40 -19 -85 -22 l-64 -4 0 76 0 76 65 0 c52 0 69 -4 85 -20z" fill="#2a41e8"/>
<path d="M2440 2426 l0 -186 45 0 45 0 -2 183 -3 182 -42 3 -43 3 0 -185z" fill="#2a41e8"/>
<path d="M3084 2592 c-17 -11 -42 -35 -55 -54 -21 -29 -24 -44 -24 -120 0 -72 3 -91 21 -115 35 -47 82 -68 149 -68 71 1 118 22 145 68 30 48 26 57 -25 57 -25 0 -45 -4 -45 -10 0 -24 -41 -50 -78 -50 -45 0 -69 21 -78 68 l-6 32 131 0 131 0 0 38 c0 46 -29 109 -64 142 -38 34 -155 41 -202 12z m145 -68 c12 -15 21 -35 21 -45 0 -17 -9 -19 -81 -19 -79 0 -80 0 -74 23 21 67 95 90 134 41z" fill="#2a41e8"/>
<path d="M3904 2591 c-36 -22 -42 -30 -54 -71 -9 -30 -8 -30 33 -30 36 0 44 4 59 30 14 24 24 30 51 30 40 0 54 -13 59 -55 l3 -30 -66 -7 c-37 -3 -80 -13 -97 -22 -59 -30 -80 -111 -42 -159 43 -55 151 -60 189 -9 l20 27 1 -27 c0 -26 3 -28 46 -28 l46 0 -4 148 c-5 159 -11 183 -58 207 -43 22 -147 20 -186 -4z m148 -221 c-4 -48 -27 -70 -74 -70 -31 0 -40 5 -47 22 -4 12 -6 31 -3 41 6 24 58 47 97 44 28 -2 30 -5 27 -37z" fill="#2a41e8"/>
</g>
</svg>